<svg id="Ebene_1" data-name="Ebene 1" xmlns="http://www.w3.org/2000/svg" viewBox="0 0 730.5 384.35"><defs><style>.cls-1{fill:#005191;}.cls-2{fill:#4b7ab1;}.cls-3{fill:#65beec;}</style></defs><path class="cls-1" d="M214.33,276.84h38.36v169.3a6.83,6.83,0,0,0,3.41,6,16.13,16.13,0,0,0,9.38,2.58,15.64,15.64,0,0,0,8.95-2.58c2.56-1.73,3.84-3.73,3.84-6V276.84h38.37v169.3c0,9.47-5.11,17.79-14.91,24.39s-22.19,10.05-36.25,10.05c-12.79,0-23-2.59-32-7.76q-13.42,7.76-32,7.76c-14.5,0-26.86-3.45-36.23-10.05-9.81-6.6-14.92-14.92-14.92-24.39V276.84h38.36v169.3a6.82,6.82,0,0,0,3.42,6,16.08,16.08,0,0,0,9.37,2.58,15.69,15.69,0,0,0,9-2.58c2.55-1.73,3.84-3.73,3.84-6Z" transform="translate(-35.37 -96.23)"/><path class="cls-1" d="M385.81,383v68.88h38.38V477.7H347.45V276.84h76.74v25.83H385.81v54.52h38.38V383Z" transform="translate(-35.37 -96.23)"/><path class="cls-2" d="M629.24,276.84V477.7H590.88V276.84Z" transform="translate(-35.37 -96.23)"/><path class="cls-2" d="M629.24,96.23V247.36H590.88V96.23Z" transform="translate(-35.37 -96.23)"/><path class="cls-3" d="M711.69,378.42h51.15V477.7H711.69c-14.51,0-26.88-3.44-36.24-10-9.82-6.6-14.93-14.63-14.93-24.38v-132c0-9.47,5.11-17.8,14.93-24.39,9.36-6.6,21.73-10,36.24-10h51.15V317H724.48V302.67H711.69a16.17,16.17,0,0,0-9.4,2.57,6.82,6.82,0,0,0-3.4,6v132a7.22,7.22,0,0,0,3.4,6.3c2.57,1.73,5.55,2.3,9.4,2.3h12.79V404.24H711.69Z" transform="translate(-35.37 -96.23)"/><polygon class="cls-1" points="0 151.13 525.81 151.13 525.81 14.37 0 151.13"/><polygon class="cls-3" points="730.5 151.13 623.55 151.13 623.55 50.7 730.5 151.13"/><path class="cls-1" d="M492.59,424.94s29.36-29,33-86.1c2.55-39.72,1.08-61.86,1.08-61.86l34.35,0s.39,46.84-1,60-3.66,87.52-67.47,140.76h-37.4V276.82h37.4Z" transform="translate(-35.37 -96.23)"/></svg>