<svg xmlns="http://www.w3.org/2000/svg" width="23" height="26" viewBox="0 0 23 26"><g><g><g><path fill="#52bdec" d="M8.668.342a1.125 1.125 0 0 1 0 1.593L2.712 7.89l5.956 5.954a1.126 1.126 0 1 1-1.593 1.593l-6.75-6.75a1.125 1.125 0 0 1 0-1.593l6.75-6.75a1.125 1.125 0 0 1 1.593 0z"/></g><g><path fill="#52bdec" d="M1.122 7.89c0-.622.503-1.126 1.125-1.126h14.625a5.625 5.625 0 0 1 5.625 5.625v12.375a1.125 1.125 0 0 1-2.25 0V12.39a3.375 3.375 0 0 0-3.375-3.375H2.247A1.125 1.125 0 0 1 1.122 7.89z"/></g></g></g></svg>