<svg xmlns="http://www.w3.org/2000/svg" width="22" height="25" viewBox="0 0 22 25"><g><g transform="rotate(13 11 12.5)"><path fill="#52bdec" d="M6.864 7.267L4.953 9.32a.59.59 0 0 0-.17.604c.75 1.738 1.93 3.301 3.448 4.573 1.467 1.338 3.247 2.369 5.21 3.018a.773.773 0 0 0 .651-.108l2.365-1.69 5.16 2.992-2.76 2.452c-.465.414-1.13.59-1.77.47-4.166-.772-8.004-2.584-11.072-5.228C3.029 13.755.96 10.388.06 6.708c-.135-.556.067-1.136.531-1.524l2.832-2.446zm10.64 15.672c.894.004 1.753-.311 2.386-.877l2.761-2.452c.301-.279.444-.666.388-1.05a1.272 1.272 0 0 0-.678-.925l-5.345-3.1a1.27 1.27 0 0 0-1.317.076l-2.201 1.569A13.817 13.817 0 0 1 9.2 13.582 12.136 12.136 0 0 1 6.248 9.84l1.777-1.906a.935.935 0 0 0 .078-1.207l-3.54-4.694a1.45 1.45 0 0 0-1.026-.553 1.517 1.517 0 0 0-1.09.343L-.385 4.27c-.825.694-1.187 1.725-.955 2.719.967 3.92 3.18 7.506 6.37 10.323 3.261 2.81 7.34 4.736 11.766 5.558.233.046.47.07.708.07z"/></g></g></svg>