<svg xmlns="http://www.w3.org/2000/svg" width="33" height="35" viewBox="0 0 33 35"><g><g transform="rotate(10 16.5 17.5)"><path fill="#fff" d="M10.629 10.528l-2.76 2.993a.866.866 0 0 0-.246.88c1.085 2.536 2.786 4.816 4.979 6.672 2.12 1.952 4.689 3.455 7.524 4.401.322.092.675.033.94-.157l3.414-2.465 7.452 4.364-3.986 3.577c-.67.603-1.631.861-2.556.686-6.015-1.127-11.557-3.77-15.988-7.626C5.09 19.99 2.104 15.08.805 9.713c-.195-.812.096-1.657.767-2.224L5.66 3.922zm15.364 22.86c1.29.006 2.53-.454 3.445-1.28l3.987-3.576c.435-.406.641-.971.56-1.533-.082-.561-.443-1.058-.98-1.349l-7.717-4.521a1.818 1.818 0 0 0-1.901.11l-3.18 2.29a19.916 19.916 0 0 1-6.205-3.79A17.676 17.676 0 0 1 9.74 14.28l2.565-2.78c.46-.5.506-1.215.113-1.76L7.307 2.893c-.339-.454-.881-.749-1.483-.806a2.176 2.176 0 0 0-1.574.5L.161 6.156c-1.192 1.013-1.715 2.516-1.38 3.966 1.397 5.72 4.593 10.95 9.2 15.057 4.708 4.099 10.598 6.909 16.99 8.108.336.066.678.1 1.022.101z"/></g></g></svg>