<svg width="41" height="38" viewBox="0 0 41 38" fill="none" xmlns="http://www.w3.org/2000/svg">
<g clip-path="url(#clip0_16_11)">
<path d="M28.1866 12.728H22.1896V8.53003H28.1866V2.53303H32.3986V8.53003H38.3956V12.728H32.3996V18.725H28.1866V12.728ZM32.9086 21.123C33.4229 21.1191 33.9148 20.912 34.2771 20.5469C34.6393 20.1818 34.8426 19.6884 34.8426 19.174V15.126H38.9056C39.4197 15.1221 39.9115 14.9151 40.2737 14.5503C40.6359 14.1854 40.8393 13.6922 40.8396 13.178V8.08003C40.8396 7.01003 39.9756 6.14003 38.9056 6.13103H34.8426V2.08403C34.8426 1.01303 33.9796 0.143033 32.9086 0.134033H27.7966C27.5405 0.133902 27.2868 0.184251 27.0502 0.282201C26.8136 0.380151 26.5985 0.523782 26.4174 0.704882C26.2363 0.885982 26.0927 1.101 25.9948 1.33765C25.8968 1.57429 25.8465 1.82792 25.8466 2.08403V6.13003H21.7996C21.5436 6.13003 21.29 6.18048 21.0535 6.27849C20.817 6.3765 20.6021 6.52015 20.4211 6.70124C20.2401 6.88232 20.0965 7.0973 19.9987 7.33388C19.9008 7.57046 19.8505 7.824 19.8506 8.08003V13.177C19.8506 14.253 20.7236 15.125 21.8006 15.125H25.8476V19.173C25.8476 20.25 26.7196 21.123 27.7966 21.123H32.9086Z" fill="white"/>
</g>
<g clip-path="url(#clip1_16_11)">
<path d="M11.9289 12.6145L8.6911 15.0828C8.55499 15.1697 8.44587 15.2928 8.37606 15.4384C8.30625 15.584 8.27853 15.7462 8.29603 15.9067C8.92417 18.5926 10.2034 21.1333 12.0408 23.342C13.7896 25.6324 16.0586 27.5587 18.6863 28.9826C18.9874 29.1291 19.3453 29.1323 19.6393 28.9912L23.4294 27.1565L30.0104 32.7482L25.4638 35.5787C24.6993 36.0562 23.7081 36.1434 22.8275 35.8105C17.0996 33.6561 12.1008 30.0909 8.40668 25.524C4.83099 20.971 2.74297 15.617 2.39567 10.106C2.34464 9.27249 2.77795 8.49085 3.53721 8.04899L8.18251 5.24605L11.9289 12.6145ZM23.0899 37.7952C24.3592 38.0251 25.6603 37.7874 26.7048 37.1328L31.2522 34.3035C31.7511 33.9792 32.0521 33.4586 32.0699 32.891C32.0866 32.3243 31.8174 31.7722 31.3391 31.3924L24.5244 25.6C24.2604 25.3918 23.944 25.2609 23.6101 25.2217C23.2762 25.1826 22.9381 25.2367 22.6331 25.3782L19.1038 27.0812C17.0065 25.8261 15.1582 24.1956 13.6512 22.2713C12.1754 20.4668 11.0711 18.3882 10.4019 16.1552L13.4107 13.8628C13.9505 13.4503 14.1199 12.7541 13.8276 12.1492L9.98317 4.51868C9.72816 4.01271 9.24562 3.62808 8.66266 3.46741C8.10944 3.32249 7.5214 3.40119 7.02575 3.68649L2.37912 6.49122C1.02933 7.28184 0.253279 8.67119 0.3314 10.1573C0.713909 16.033 2.95317 21.7385 6.77701 26.5831C10.7017 31.4374 16.0143 35.2275 22.101 37.5182C22.4204 37.6416 22.7513 37.7345 23.0899 37.7952V37.7952Z" fill="white"/>
</g>
<defs>
<clipPath id="clip0_16_11">
<rect width="22" height="22" fill="white" transform="translate(19)"/>
</clipPath>
<clipPath id="clip1_16_11">
<rect width="33" height="35" fill="white" transform="translate(0 3)"/>
</clipPath>
</defs>
</svg>
