<svg xmlns="http://www.w3.org/2000/svg" width="73" height="54" viewBox="0 0 73 54"><g><g transform="rotate(-14 36.5 27)"><path fill="#52bdec" d="M27.738 43.484c-10.86.203-19.495-8.157-19.289-18.672.159-8.065 5.473-15.056 12.632-17.883 2.447-.969 4.875-1.476 7.405-1.524 10.86-.203 19.495 8.157 19.289 18.672-.207 10.516-9.178 19.204-20.037 19.407zm20.791-3.882c8.68-10.75 7.491-25.867-2.717-34.53C35.604-3.59 19.892-2.815 9.922 6.84-.048 16.497-.843 31.71 8.106 41.593c8.949 9.882 24.56 11.03 35.66 2.622l17.296 16.742c1.266 1.227 3.36 1.189 4.676-.085 1.316-1.273 1.357-3.3.09-4.527L48.534 39.602z"/></g></g></svg>