<svg xmlns="http://www.w3.org/2000/svg" width="22" height="22" viewBox="0 0 22 22"><g><g><path fill="#fff" d="M9.187 12.728H3.19V8.53h5.997V2.533h4.212V8.53h5.997v4.198H13.4v5.997H9.187zm4.722 8.395a1.949 1.949 0 0 0 1.934-1.949v-4.048h4.063a1.949 1.949 0 0 0 1.934-1.948V8.08c0-1.07-.864-1.94-1.934-1.949h-4.063V2.084c0-1.071-.863-1.941-1.934-1.95H8.797a1.949 1.949 0 0 0-1.95 1.95V6.13H2.8a1.949 1.949 0 0 0-1.949 1.95v5.097c0 1.076.873 1.948 1.95 1.948h4.047v4.048c0 1.077.872 1.95 1.949 1.95z"/></g></g></svg>