<svg xmlns="http://www.w3.org/2000/svg" width="184" height="139" viewBox="0 0 184 139"><g><g opacity=".1" transform="rotate(-14 92 69.5)"><path fill="#52bdec" d="M20.145 61.918c.212-26.99 22.55-49.049 49.895-49.27 27.344-.22 49.34 21.48 49.128 48.47-.212 26.99-22.55 49.049-49.894 49.27-27.345.22-49.34-21.48-49.129-48.47zm101.378 39.078c21.548-27.36 18.108-66.202-7.856-88.723-25.964-22.522-65.514-20.97-90.34 3.547C-1.5 40.335-3.055 79.373 19.773 104.99c22.83 25.618 62.183 28.996 89.892 7.716l44.052 43.46c3.224 3.185 8.495 3.145 11.772-.089 3.278-3.233 3.321-8.436.097-11.62l-44.052-43.461z"/></g></g></svg>