<svg xmlns="http://www.w3.org/2000/svg" width="36" height="36" viewBox="0 0 36 36"><g><g><path fill="#fff" d="M32.418.25c1 0 1.847.347 2.542 1.042.695.695 1.042 1.514 1.041 2.458v28.5c0 .945-.347 1.764-1.042 2.458-.695.694-1.542 1.041-2.541 1.042H4.001c-1 0-1.847-.347-2.542-1.042C.764 34.013.417 33.194.418 32.25V3.75c0-.945.347-1.764 1.042-2.458C2.155.598 3.002.251 4.001.25zm-1.75 10.5c-.722.333-1.583.583-2.583.75 1-.722 1.667-1.611 2-2.667-1.111.611-2.139 1-3.083 1.167-.667-.778-1.528-1.236-2.583-1.375-1.055-.139-2.041 0-2.958.417-.917.417-1.653 1.111-2.208 2.083-.555.972-.694 2.041-.417 3.208-3.722-.222-7-1.861-9.833-4.917-.611 1.111-.736 2.32-.375 3.625.361 1.305.958 2.208 1.79 2.709-.611-.055-1.278-.25-2-.583.055 2.389 1.278 3.972 3.667 4.75a4.86 4.86 0 0 1-2 .083c.667 2 2.139 3.111 4.417 3.333-.833.722-1.917 1.264-3.25 1.625s-2.584.459-3.751.292c2.5 1.555 5.056 2.278 7.667 2.167 3.889-.167 7.041-1.542 9.458-4.125s3.653-5.93 3.709-10.042c1.222-1 2-1.833 2.333-2.5z"/></g></g></svg>