<svg xmlns="http://www.w3.org/2000/svg" width="36" height="37" viewBox="0 0 36 37"><g><g><g><path fill="#fff" d="M0 37V0h36v37z"/></g><g><path fill="#13324a" d="M32.366 3.816c.143.208.143.448 0 .721l-10.3 18.218v.02L28.62 34.77c.143.26.15.5.02.721-.13.195-.338.293-.624.293h-4.662c-.546 0-.975-.293-1.287-.878l-6.612-12.131L25.812 4.4c.325-.585.741-.878 1.249-.878h4.7c.286 0 .488.097.605.293zM16.645 16.337c-.13.234-1.8 3.199-5.013 8.894-.35.598-.773.897-1.267.897H5.703c-.273 0-.475-.11-.605-.331-.13-.222-.13-.456 0-.703l4.935-8.738c.013 0 .013-.006 0-.02l-3.14-5.44c-.156-.286-.163-.527-.02-.722.117-.195.325-.292.624-.292h4.662c.52 0 .949.292 1.287.878z"/></g></g></g></svg>